<?xml version="1.0" encoding="utf-8"?>
<!-- Generator: Adobe Illustrator 26.2.1, SVG Export Plug-In . SVG Version: 6.00 Build 0)  -->
<svg version="1.1" baseProfile="tiny" id="Layer_1" xmlns="http://www.w3.org/2000/svg" xmlns:xlink="http://www.w3.org/1999/xlink"
	 x="0px" y="0px" viewBox="0 0 349.48 190.44" overflow="visible" xml:space="preserve">
<g>
	<path fill="#FFE60D" d="M61.35,131.23c-4.49-10.29-6.4-21.1-6.02-31.79l-20.84,0c-0.46,12.74,1.86,25.77,7.29,38.24
		c19.4,44.49,71.2,64.83,115.69,45.42c14.32-6.25,26.14-15.85,34.93-27.49c-6.43,5.33-13.75,9.88-21.86,13.42
		C127.52,187.78,78.64,170.86,61.35,131.23L61.35,131.23z"/>
	<polygon fill="#FFE60D" points="57.54,37.28 57.54,37.28 57.54,37.28 57.54,37.28 	"/>
	<path fill="#FFE60D" d="M38.21,54.24c1.34-0.06,2.7-0.12,4.05-0.18c2.79-3.78,5.83-7.3,9.09-10.52c-4.86-0.02-9.71-0.04-14.57-0.06
		c-0.26,0-0.52,0-0.79,0c-2.06,3.52-3.89,7.22-5.47,11.1C33.08,54.47,35.64,54.35,38.21,54.24L38.21,54.24z"/>
	<path fill="#FFE60D" d="M32.28,67.54c-1.89-0.35-3.79-0.7-5.69-1.05c-2.82,11.17-3.35,22.5-1.83,33.43
		c0.78-8.31,2.74-16.71,5.97-24.94c0.96-2.45,2.02-4.83,3.16-7.14C33.36,67.74,32.82,67.64,32.28,67.54L32.28,67.54z"/>
	<path fill="#FFE60D" d="M143.95,6.1C105.5-9,62.83,4.88,40.04,37.2c4.99-0.01,9.98-0.02,14.97-0.02c0.79,0,1.58,0,2.37,0v0h0v0
		c0.14,0,0.23-0.01,0.29-0.01c0.23-0.23,0.52-0.46,0.89-0.62c0.39-0.18,0.8-0.24,1.14-0.25c21.47-16.4,49.48-21.8,74.97-11.79
		c10.45,4.1,18.55,10.39,25.84,18.22h32.09c0,0-8.04-12.09-18.87-19.89C168.76,19.25,156.61,11.07,143.95,6.1L143.95,6.1z"/>
	<path fill="#231F20" d="M116.76,29.19c1.19,0.24,2.38,0.49,3.57,0.73c0.48,0.1,0.95,0.19,1.42,0.28c0,0.07,0,0.15,0,0.22
		c-3.38,0.64-6.77,1.28-10.15,1.91c-4.45,0.83-8.9,1.67-13.35,2.5c-4.54,0.85-9.08,1.7-13.62,2.55c-2.54,0.48-5.1,0.9-7.62,1.45
		c-1.31,0.29-2.57,0.81-3.84,1.22c0.13,0.75,0.66,0.87,1.28,0.98c5.52,0.99,11.04,2.01,16.56,3.01c3.11,0.57,6.23,1.13,9.34,1.7
		c0.02,0,0.05,0.02,0.07,0.11c-0.51,0-1.02-0.01-1.52,0c-0.89,0.01-1.78,0.02-2.67,0.06c-1.35,0.06-2.62-0.35-3.92-0.59
		c-4.95-0.94-9.89-1.97-14.85-2.84c-1.53-0.27-3.14-0.12-4.71-0.16c-0.54-0.01-1.08,0-1.65,0c-0.19,1.68-0.37,3.34-0.56,5.04
		c0.78,0.04,1.55,0.08,2.32,0.12c0.64,0.03,1.3,0.01,1.93,0.11c1.15,0.17,2.19,0.55,3.01,1.46c0.61,0.67,1.11,1.41,1.59,2.17
		c0.09,0.14,0.18,0.21,0.35,0.2c1.7-0.04,3.41-0.08,5.11-0.11c0.3-0.01,0.34-0.29,0.5-0.44c0.19-0.18,0.27-0.54,0.52-0.55
		c0.49-0.03,1.04-0.18,1.49,0.08c1.67,0.96,3.53,1.15,5.38,1.41c0.22,0.03,0.43,0.1,0.63,0.2c3.21,1.53,5.84,3.88,8.6,6.06
		c2.13,1.68,4.28,3.33,6.37,5.07c1.27,1.05,2.33,2.33,3.46,3.52c0.26,0.27,0.18,0.74,0.32,1.09c0.36,0.92,0,1.8-0.13,2.69
		c-0.02,0.13-0.13,0.18-0.22,0.24c-1.49,1.17-3.17,1.95-4.97,2.5c-1.61,0.5-3.21,1.06-4.9,1.25c-2.71,0.3-5.36,0.91-8.05,1.32
		c-0.24,0.04-0.43,0.12-0.59,0.32c-0.24,0.32-0.52,0.61-0.78,0.93c0.59,0.98,1.17,1.94,1.76,2.94c0.44-0.19,0.86-0.38,1.33-0.58
		c-0.35-0.3-0.67-0.58-1.08-0.93c1.78,0.2,3.45,0.39,5.24,0.59c-1.23,0.58-2.38,1.08-3.49,1.65c-0.6,0.31-1.2,0.4-1.86,0.38
		c-4.61-0.15-9.22-0.27-13.84-0.4c-0.1,0-0.2,0-0.35,0c0.19,0.59,0.38,1.15,0.58,1.74c0.36-0.17,0.7-0.32,1.08-0.5
		c-0.25-0.28-0.47-0.54-0.74-0.85c1.75,0.06,3.44,0.11,5.12,0.17c-1.39,0.76-2.55,1.98-4.24,2.14c-0.26,0-0.52,0-0.79,0
		c-0.32-0.02-0.63-0.05-0.95-0.07c-2.95-0.16-5.9-0.33-8.86-0.49c-2.55-0.14-5.1-0.27-7.65-0.41c-2.99-0.16-5.98-0.31-8.97-0.5
		c-1.55-0.1-3.11-0.07-4.64-0.33c-0.56-0.1-1.12-0.22-1.67-0.32c0.63-1.05,1.65-0.57,2.51-0.71c0.02-0.14,0.05-0.27,0.06-0.4
		c0.23-1.8,0.44-3.6,0.71-5.39c0.12-0.76,0.63-1.38,0.94-2.08c0.18-0.41,0.43-0.74,0.78-1.04c0.57-0.49,1.15-0.93,2.04-1.03
		c-0.19-0.09-0.27-0.14-0.35-0.17c-1.91-0.83-3.82-1.65-5.73-2.48c-0.29-0.13-0.56-0.2-0.89-0.15c-0.28,0.04-0.56,0.1-0.86,0.04
		c-0.96-0.19-1.93-0.36-2.89-0.53c-4.32-0.8-8.65-1.59-12.97-2.39c-2.99-0.55-5.98-1.1-9-1.65c-0.3,0.63-0.6,1.26-0.9,1.91
		c-0.83-0.79-1.62-1.55-2.41-2.31c-0.1-0.09-0.19-0.17-0.33-0.19c-2.26-0.4-4.52-0.8-6.79-1.21c-0.03,0.08-0.06,0.15-0.08,0.22
		c-0.54,1.83-1.09,3.67-1.63,5.5c-0.07,0.24-0.19,0.4-0.4,0.54c-0.4,0.26-0.84,0.46-1.2,0.84c0.03-0.14-0.06-0.2-0.13-0.27
		c-0.35-0.33-0.7-0.65-1.05-0.97c-0.1-0.09-0.15-0.18-0.14-0.31c0.09-1.16,0.17-2.31,0.25-3.47c0.06-0.91,0.13-1.82,0.19-2.75
		c-0.87-0.12-1.71-0.23-2.58-0.34c0.11-0.17,0.21-0.3,0.27-0.44c0.15-0.36,0.4-0.5,0.8-0.5c0.57,0.01,1.15-0.05,1.73-0.09
		c-1.16-4.5-2.32-8.97-3.48-13.46c0.46,0,0.9,0,1.36,0c1.76,3.78,3.52,7.56,5.24,11.25c1.24,0,2.41,0,3.57,0
		c-0.47-1.53-1.96-1.79-2.97-2.64c0.33-0.52,0.66-1.03,1-1.55c1.03,0.84,2.02,1.66,3.01,2.47c0.11,0.09,0.17,0.19,0.21,0.32
		c0.23,0.68,0.48,1.36,0.72,2.05c0.4-0.02,0.8-0.04,1.19-0.06c2.75-0.12,5.5-0.24,8.25-0.36c3.62-0.16,7.24-0.33,10.85-0.49
		c3.19-0.14,6.38-0.29,9.56-0.4c0.9-0.03,1.64-0.42,2.45-0.71c-0.4-0.46-0.8-0.78-1.46-0.66c-0.49,0.09-1.01,0.02-1.54,0.02
		c0-0.79-0.03-1.61,0.02-2.42c0.02-0.29,0.2-0.56,0.6-0.56c1.21,0.01,2.43,0,3.73,0c0.51-1.22,1.43-2.36,1.73-3.78
		c4.09-0.83,8.21-0.93,12.37-0.95c-0.07-1,0.42-1.91,0.22-2.92c-0.19-0.95-0.24-1.94-0.35-2.91c-1.29-0.1-2.54-0.16-3.79-0.29
		c-0.64-0.07-1.15-0.01-1.42,0.65c-0.01,0.03-0.05,0.05-0.06,0.05c-0.63-0.17-1.11-0.48-1.11-1.2c-0.15,0-0.24,0-0.33,0
		c-7.39-0.03-14.77-0.06-22.16-0.09c-11.24-0.04-22.48-0.09-33.73-0.12C1.3,40.67,0.68,40.27,0,40c0.09-0.03,0.18-0.03,0.27-0.03
		c5.41-0.01,10.82-0.03,16.23-0.04c13.3-0.03,26.6-0.06,39.91-0.05c0.86,0,1.57-0.14,2.15-0.78c0.11-0.12,0.24-0.14,0.4-0.1
		c0.87,0.2,1.74,0.32,2.63,0.32c1.17,0,2.34,0.05,3.51,0.08c0.08,0,0.16-0.01,0.25-0.01c0-0.15,0-0.28,0-0.42
		c-0.5-0.11-1-0.22-1.58-0.35c0.46-0.24,0.75-0.63,1.22-0.68c1.58-0.15,3.16-0.43,4.76-0.12c1.14,0.22,2.31,0.31,3.46,0.46
		c0.05,0.2,0.09,0.37,0.13,0.54c0.04,0,0.07,0,0.1-0.01c2.95-0.68,5.91-1.37,8.86-2.05c9.18-2.12,18.36-4.25,27.54-6.37
		c1.52-0.35,3.02-0.77,4.56-1.01c0.61-0.1,1.22-0.13,1.83-0.2C116.42,29.19,116.59,29.19,116.76,29.19L116.76,29.19z M103.19,59.98
		c-2.84-2.17-5.67-4.34-8.51-6.51c-0.08-0.06-0.15-0.13-0.27-0.14c-2.2-0.21-4.54,0.1-6.73,0.89c1.63,3.57,3.25,7.13,4.89,10.73
		c4.79-0.71,9.57-1.41,14.36-2.11C105.7,61.9,104.45,60.94,103.19,59.98L103.19,59.98z M67.46,81.87c0.41-0.56,0.94-1.04,0.88-1.8
		c-1.27,0-2.57,0-3.86,0c0.01-0.62,0.17-0.8,0.78-0.9c0.47-0.08,0.94-0.16,1.44-0.25c-0.18-0.97-0.35-1.93-0.52-2.89
		c-0.09-0.48-0.18-0.95-0.26-1.43c-0.03-0.2-0.1-0.32-0.33-0.37c-2.68-0.63-5.34-1.33-7.93-2.28c-0.64-0.24-1.34-0.34-2.01-0.46
		c-0.22-0.04-0.44,0.04-0.66,0.16c-1.03,0.56-1.54,1.5-1.95,2.53c-0.01,0.03-0.03,0.05-0.03,0.08c0.13,1.1-0.47,2.08-0.54,3.16
		c-0.07,1.08-0.31,2.14-0.47,3.21c-0.01,0.04,0.01,0.09,0.01,0.16C57.17,81.15,62.32,81.51,67.46,81.87L67.46,81.87z M78.39,60.9
		c-0.31-1.46-0.63-2.92-0.95-4.38c-0.14-0.66-0.99-1.35-1.61-1.32c-2.01,0.1-4.02,0.2-6.02,0.32c-0.48,0.03-0.89,0.31-1.33,0.48
		c-0.06,0.02-0.1,0.15-0.12,0.24c-0.2,0.95-0.42,1.89-0.59,2.85c-0.08,0.45,0.14,0.87,0.21,1.31c0.05,0.32,0.17,0.64,0.2,0.96
		c0.13,1.51,0.91,1.77,2.07,1.98c2.23,0.41,4.49,0.56,6.74,0.74c0.5,0.04,1.01-0.14,1.46-0.21C78.94,62.84,78.59,61.87,78.39,60.9
		L78.39,60.9z M89.15,62.26c-1.13-2.11-2.14-4.27-3.2-6.42c-0.08-0.17-0.21-0.26-0.36-0.36c-1.13-0.81-2.44-0.62-3.66-0.51
		c-0.82,0.08-1.45,0.76-1.95,1.45c-0.04,0.06-0.01,0.18,0,0.27c0.26,1.74,0.46,3.49,0.82,5.2c0.14,0.64,0.54,1.27,1.11,1.73
		c0.75,0.6,1.58,0.82,2.54,0.81c1.57-0.02,3.15,0.32,4.72,0C89.43,63.7,89.57,63.04,89.15,62.26L89.15,62.26z M79.87,76.22
		c-0.88,0.34-1.76,0.04-2.63,0.01c-0.22-0.01-0.26-0.34-0.37-0.53c-0.09-0.16-0.19-0.24-0.39-0.23c-1.57,0.06-3.14,0.15-4.71-0.06
		c-0.18-0.02-0.31,0.03-0.44,0.17c-0.34,0.38-0.71,0.72-1.03,1.11c-0.35,0.43-0.37,1.01-0.59,1.5c-0.16,0.34-0.09,0.65,0.07,0.98
		c2.74,0.06,5.48,0.11,8.3,0.17c-0.6-0.77-1.15-1.49-1.7-2.19c0.57,0,1.13-0.02,1.68,0c1.06,0.04,2.11,0.11,3.17,0.16
		c0.28,0.01,0.32,0.28,0.49,0.43c-0.58,0.45-1.04,1.05-1.82,1.15c0.18,0.48,0.41,0.77,0.97,0.7c0.51-0.06,1.04-0.01,1.6-0.01
		c-0.31-1.28-0.62-2.52-0.92-3.76C80.92,75.83,80.39,76.02,79.87,76.22L79.87,76.22z M83.23,79.77c3.08,0.08,6.13,0.17,9.23,0.25
		c-0.6-1.24-1.11-2.47-2.17-3.4c-0.49-0.43-0.93-0.67-1.6-0.66c-1.99,0.03-3.99-0.03-5.98-0.05c-0.1,0-0.2,0-0.32,0
		C82.67,77.21,82.94,78.48,83.23,79.77L83.23,79.77z M78.1,80.45c-2.81-0.2-5.61-0.39-8.4-0.59c-0.6,0.92-0.6,1.17-0.02,2.01
		c2.95,0.11,5.91,0.23,8.9,0.34C78.42,81.6,78.26,81.03,78.1,80.45L78.1,80.45z M68.74,79.08c0.3-1.5,0.55-3.05,1.68-4.35
		c-1.25-0.06-2.36-0.11-3.41-0.16c0.27,1.5,0.53,2.99,0.8,4.51C68.12,79.08,68.4,79.08,68.74,79.08L68.74,79.08z"/>
	<path fill="#231F20" d="M172.37,73.84c1.24,3.87,3.46,7.17,5.92,10.34c0.27,0.35,0.57,0.68,0.82,1.04
		c0.12,0.17,0.51,0.34,0.19,0.59c-0.24,0.19-0.56,0.48-0.92,0.16c-2.31-2.09-4.82-3.97-6.87-6.34c-0.45-0.51-0.53-1.2-0.55-1.87
		c-0.04-1.42-0.28-2.65-1.67-3.53c-1.27-0.8-1.93-2.21-2.62-3.52c-0.21-0.39-0.39-0.79-0.59-1.18c-0.9-1.73-0.91-1.75-2.8-1.33
		c-0.49,0.11-0.58-0.07-0.67-0.48c-0.28-1.23-0.61-2.44-0.91-3.66c-0.05-0.22-0.06-0.44-0.35-0.63c-0.56,0.91-0.74,1.97-1.16,2.92
		c-0.29,0.66-0.29,1.71-0.85,1.89c-0.5,0.16-1.26-0.49-1.91-0.8c-0.57-0.27-1.12-0.56-1.68-0.85c-0.46-0.24-0.9-0.53-1.57-0.16
		c0.48-1.13,0.9-2.06,1.53-2.9c1.01-1.34,1.04-2.17,0.08-3.51c-0.82-1.15-1.05-2.47-1.27-3.81c-0.19-1.17-0.39-1.25-1.57-1.12
		c-3.06,0.32-5.3,1.89-7.17,4.24c-4.52,5.67-9.51,10.93-14.39,16.29c-0.68,0.74-1.69,0.91-2.61,1.51c2.4,1.49,4.74,2.93,7.25,4.49
		c-1.98,0.27-3.94,0.36-4.31,2.86c-2.69-2.14-5.3-4.22-7.91-6.3c-0.89-0.71-1.8-1.39-2.65-2.14c-0.47-0.41-0.69-0.37-1.05,0.14
		c-2.05,2.95-4.13,5.87-6.2,8.81c-0.42,0.6-0.97,1.01-1.71,1.21c1.44-1.85,2.37-3.97,3.47-5.99c1.55-2.85,3.19-5.64,4.91-8.38
		c0.35-0.56,0.56-0.63,1.1-0.2c1.56,1.23,3.18,2.38,4.75,3.58c0.41,0.31,0.77,0.39,1.3,0.29c2.16-0.39,3.83-1.53,5.19-3.19
		c4.09-4.96,8.41-9.72,12.6-14.6c1.21-1.42,2.59-2.42,4.39-2.91c1.73-0.47,3.25-1.26,4.14-3c0.51-0.99,0.98-0.95,1.69-0.11
		c1.64,1.92,3.29,3.82,4.9,5.76c0.89,1.07,2.02,1.69,3.36,1.92c1.4,0.25,2.56,0.79,3.19,2.19c0.31,0.68,0.95,1.11,1.65,1.33
		c0.97,0.29,1.62,0.92,2.16,1.73c0.35,0.52,0.75,1.02,1.07,1.56c0.74,1.27,2.02,1.62,3.29,2.02c0.3,0.1,0.47-0.09,0.68-0.22
		c1.32-0.82,2.66-1.46,4.25-0.75c0.39,0.18,0.55-0.21,0.76-0.41c4.86-4.45,9.72-8.89,14.54-13.37c0.53-0.5,0.74-0.47,1.17,0.1
		c3.89,5.2,8.12,10.12,12.43,14.98c1.67,1.88,2.97,2.25,5.19,1.08c1.89-1,3.36-0.6,4.93,0.53c2.37,1.72,4.33,3.85,6.13,6.13
		c2.58,3.26,5.05,6.61,7.57,9.92c0.3,0.39,0.62,0.78,0.48,1.41c-0.6-0.29-0.93-0.8-1.32-1.22c-1.27-1.41-2.7-2.64-4.15-3.86
		c-0.92-0.77-1.81-1.62-2.36-2.68c-0.71-1.37-1.88-1.54-3.18-1.48c-0.66,0.03-1.32,0.13-1.97,0.26c-0.62,0.12-0.88,0-0.94-0.71
		c-0.12-1.5-0.36-3-0.55-4.5c-0.11-0.89-0.64-1.23-1.51-1.16c-0.64,0.05-1.22,0.25-1.78,0.56c-1.4,0.77-2.75,0.95-4.14-0.1
		c-0.64-0.48-1.32-0.56-1.95,0.24c-0.68,0.86-1.57,1.55-2.29,2.39c-0.51,0.6-0.87,0.48-1.37,0.04c-0.57-0.5-1.18-0.94-1.79-1.41
		c-1.18,1.88-0.85,3.85-0.43,5.82c0.61,2.81,1.55,5.5,2.84,8.07c0.21,0.42,0.35,0.86,0.54,1.32c-0.69,0.21-1.17,0.08-1.61-0.47
		c-0.85-1.05-1.73-2.09-2.68-3.06c-3.23-3.32-5.18-7.38-6.82-11.63c-0.64-1.67-1.42-3.28-2.15-4.92c-0.9-2.03-1.11-4.11-0.51-6.26
		c0.17-0.6,0.28-1.23,0.43-1.84c0.17-0.71,0.47-0.8,0.97-0.28c0.42,0.43,0.79,0.9,1.18,1.35c0.14,0.16,0.26,0.4,0.53,0.28
		c0.29-0.12,0.17-0.37,0.14-0.57c-0.18-1.09-0.37-2.17-0.55-3.26c-0.06-0.39-0.26-0.57-0.66-0.68c-1.62-0.45-3.02-0.06-4.12,1.17
		c-3.04,3.38-6.37,6.47-9.55,9.71c-0.74,0.76-1.38,0.99-2.36,0.46c-1.09-0.59-1.31-0.52-1.85,0.55c-0.46,0.92-1.21,1.08-2.27,1.01
		c1.35,1.68,2.5,3.32,3.93,4.73c0.28,0.28,0.65,0.53,1.02,0.65c2.47,0.82,3.79,2.58,4.27,5.06c0.16,0.83,0.3,1.66,0.47,2.63
		c-0.53-0.44-0.88-0.87-1.15-1.36c-0.75-1.38-1.83-2.38-3.35-2.88c-0.24-0.08-0.52-0.16-0.66-0.34c-0.9-1.13-2.21-1.53-3.47-1.99
		c-0.94-0.34-1.57-1.01-2.18-1.74c-0.52-0.63-1.07-1.23-1.61-1.84c-0.07-0.05-0.17-0.14-0.19-0.13
		C172.25,73.63,172.3,73.74,172.37,73.84L172.37,73.84z"/>
	<path fill="#231F20" d="M92.39,120.38h4.24v-8.31h8.23v8.31h4.24v-19.24h-4.24v7.17h-8.23v-7.17h-4.24V120.38L92.39,120.38z
		 M114.8,120.38h13.56v-3.91h-9.32v-3.91h8.34v-3.91h-8.34v-3.59h8.83v-3.91H114.8V120.38L114.8,120.38z M133.54,120.38h12.09v-3.91
		h-7.85v-15.32h-4.24V120.38L133.54,120.38z M149.54,120.38h4.24v-19.24h-4.24V120.38L149.54,120.38z M171.69,102.67
		c-1.63-1.44-3.72-2.01-5.9-2.01c-3.78,0-7.33,2.15-7.33,6.25c0,6.41,9.02,4.51,9.02,8.04c0,1.36-1.55,2.01-2.93,2.01
		c-1.41,0-2.83-0.68-3.69-1.82l-3.02,3.32c1.82,1.68,3.99,2.42,6.47,2.42c3.97,0,7.42-2.04,7.42-6.33c0-6.74-8.86-4.48-8.86-7.99
		c0-1.44,1.66-1.98,2.85-1.98c1.03,0,2.39,0.41,3.07,1.28L171.69,102.67L171.69,102.67z M176.66,120.38h13.56v-3.91h-9.32v-3.91
		h8.34v-3.91h-8.34v-3.59h8.83v-3.91h-13.07V120.38L176.66,120.38z M195.24,120.38h4.24v-7.69h2.09l4.02,7.69h5.08l-4.89-8.12
		c2.72-0.49,4.16-2.58,4.16-5.27c0-4.48-3.31-5.84-7.25-5.84h-7.44V120.38L195.24,120.38z M199.48,104.73h2.77
		c1.55,0,3.29,0.3,3.29,2.23c0,2.09-2.01,2.15-3.56,2.15h-2.5V104.73L199.48,104.73z M220.26,120.38h3.39l7.93-19.24h-4.54
		l-4.83,12.61h-0.06l-4.75-12.61h-4.84L220.26,120.38L220.26,120.38z M235.18,120.38h4.24v-19.24h-4.24V120.38L235.18,120.38z
		 M260.74,103.48c-1.63-2.09-4.35-2.83-6.49-2.83c-6,0-10.38,3.94-10.38,10.11c0,6.17,4.37,10.11,10.38,10.11
		c2.64,0,5.35-1.06,6.96-3.34l-3.53-2.63c-0.87,1.3-2.26,2.07-3.97,2.07c-3.07,0-5.43-2.61-5.43-6.2c0-3.59,2.36-6.19,5.57-6.19
		c1.58,0,2.8,0.57,3.64,1.58L260.74,103.48L260.74,103.48z M265.3,120.38h13.56v-3.91h-9.32v-3.91h8.34v-3.91h-8.34v-3.59h8.83
		v-3.91H265.3V120.38L265.3,120.38z M296.3,102.67c-1.63-1.44-3.72-2.01-5.9-2.01c-3.78,0-7.33,2.15-7.33,6.25
		c0,6.41,9.02,4.51,9.02,8.04c0,1.36-1.55,2.01-2.93,2.01c-1.41,0-2.83-0.68-3.7-1.82l-3.02,3.32c1.82,1.68,3.99,2.42,6.47,2.42
		c3.97,0,7.42-2.04,7.42-6.33c0-6.74-8.86-4.48-8.86-7.99c0-1.44,1.66-1.98,2.85-1.98c1.03,0,2.39,0.41,3.07,1.28L296.3,102.67
		L296.3,102.67z M310.78,120.38h4.24v-13.69h0.05l8.4,13.69h5.54v-19.24h-4.24v13.37h-0.06l-8.18-13.37h-5.76V120.38L310.78,120.38z
		 M333.55,120.38h15.21v-3.91h-9.89l9.56-11.57v-3.75H333.9v3.75h9.4l-9.75,11.57V120.38L333.55,120.38z"/>
	<path fill="#231F20" d="M305.04,143.18c0,0.39,0.46,0.59,0.9,0.59c0.46,0,0.9-0.2,0.9-0.59v-11.2c0-0.41-0.44-0.57-0.9-0.57
		c-0.44,0-0.9,0.17-0.9,0.57v4.67h-4.21v-4.67c0-0.41-0.44-0.57-0.9-0.57c-0.44,0-0.9,0.17-0.9,0.57v11.2c0,0.39,0.46,0.59,0.9,0.59
		c0.46,0,0.9-0.2,0.9-0.59v-5.11h4.21V143.18L305.04,143.18z M310.65,143.77c0.3,0,0.54-0.1,0.63-0.37l0.69-2.4h4.18l0.69,2.4
		c0.08,0.27,0.32,0.37,0.61,0.37c0.51,0,1.13-0.32,1.13-0.75c0-0.05-0.02-0.1-0.03-0.15l-3.35-10.96c-0.14-0.41-0.64-0.61-1.15-0.61
		c-0.51,0-1,0.2-1.13,0.61l-3.37,10.96c-0.02,0.05-0.02,0.1-0.02,0.15C309.54,143.47,310.16,143.77,310.65,143.77L310.65,143.77z
		 M312.36,139.56l1.69-5.8l1.69,5.8H312.36L312.36,139.56z M321.51,143.77c0.3,0,0.54-0.1,0.62-0.37l0.69-2.4h4.18l0.69,2.4
		c0.08,0.27,0.32,0.37,0.61,0.37c0.51,0,1.13-0.32,1.13-0.75c0-0.05-0.02-0.1-0.03-0.15l-3.35-10.96c-0.14-0.41-0.64-0.61-1.15-0.61
		c-0.51,0-1,0.2-1.13,0.61l-3.37,10.96c-0.02,0.05-0.02,0.1-0.02,0.15C320.4,143.47,321.02,143.77,321.51,143.77L321.51,143.77z
		 M323.22,139.56l1.69-5.8l1.69,5.8H323.22L323.22,139.56z M335.18,142.28c-1.88,0-2.28-1.34-2.89-1.34c-0.42,0-0.78,0.56-0.78,0.96
		c0,0.85,1.54,2,3.74,2c2.23,0,3.86-1.18,3.86-3.6c0-4.5-5.5-3.37-5.5-5.87c0-1.07,0.88-1.54,2.11-1.54c1.44,0,1.88,0.64,2.33,0.64
		c0.51,0,0.74-0.63,0.74-0.96c0-0.93-1.98-1.22-3.08-1.22c-1.81,0-3.91,0.74-3.91,3.25c0,4.06,5.5,2.89,5.5,5.89
		C337.31,141.71,336.4,142.28,335.18,142.28L335.18,142.28z M341.86,131.41c-0.41,0-0.59,0.42-0.59,0.81c0,0.44,0.22,0.83,0.59,0.83
		h2.62v10.13c0,0.39,0.44,0.59,0.9,0.59c0.44,0,0.9-0.2,0.9-0.59v-10.13h2.61c0.39,0,0.59-0.41,0.59-0.85
		c0-0.39-0.19-0.79-0.59-0.79H341.86L341.86,131.41z"/>
	<path fill="#231F20" d="M290.54,130.71c-0.31,0-0.58,0.14-0.71,0.42l-5.94,12.2c-0.05,0.1-0.08,0.22-0.08,0.32
		c0,0.42,0.37,0.9,0.95,0.9c0.32,0,0.64-0.17,0.76-0.42l5.96-12.2c0.05-0.1,0.07-0.22,0.07-0.32
		C291.54,131.07,291.01,130.71,290.54,130.71L290.54,130.71z"/>
	<path fill="#231F20" d="M174.8,143.18c0,0.41,0.46,0.59,0.9,0.59c0.46,0,0.9-0.19,0.9-0.59v-4.89h2.62c0.41,0,0.58-0.37,0.58-0.69
		c0-0.39-0.2-0.73-0.58-0.73h-2.62V133h4.94c0.37,0,0.57-0.37,0.57-0.81c0-0.37-0.17-0.78-0.57-0.78h-5.94
		c-0.39,0-0.79,0.2-0.79,0.59V143.18L174.8,143.18z M188.14,143.87c2.13,0,3.81-1.03,3.81-3.77v-4.92c0-2.74-1.67-3.77-3.81-3.77
		c-2.15,0-3.79,1.03-3.79,3.77v4.92C184.35,142.84,185.99,143.87,188.14,143.87L188.14,143.87z M190.16,140.1
		c0,1.49-0.76,2.18-2.01,2.18c-1.27,0-2-0.69-2-2.18v-4.92c0-1.49,0.73-2.18,2-2.18c1.25,0,2.01,0.69,2.01,2.18V140.1L190.16,140.1z
		 M201.1,143.42c0.1,0.2,0.3,0.41,0.56,0.41c0.51,0,1.17-0.39,1.17-0.88c0-0.1-0.05-0.22-0.12-0.36l-2.93-5.01l2.84-4.97
		c0.08-0.15,0.14-0.31,0.14-0.44c0-0.47-0.61-0.81-1.12-0.81c-0.32,0-0.54,0.22-0.68,0.51l-2.37,4.33l-2.33-4.33
		c-0.15-0.29-0.37-0.51-0.68-0.51c-0.52,0-1.13,0.34-1.13,0.81c0,0.14,0.05,0.29,0.13,0.44l2.84,4.97l-2.93,5.01
		c-0.07,0.14-0.1,0.25-0.1,0.36c0,0.49,0.66,0.88,1.15,0.88c0.25,0,0.46-0.2,0.58-0.41l2.47-4.5L201.1,143.42L201.1,143.42z
		 M213.75,143.94c1.52,0,2.62-0.61,3.42-1.47l1.17,1.22c0.17,0.17,0.3,0.22,0.46,0.22c0.42,0,0.83-0.35,0.83-0.73
		c0-0.1-0.03-0.22-0.12-0.32l-1.44-1.52c0.69-1.24,0.9-2.66,0.9-3.43c0-0.56-0.14-0.86-0.74-0.86c-0.61,0-0.78,0.2-0.81,0.59
		c-0.03,0.64-0.03,1.61-0.44,2.57l-2.99-3.21c-0.73-0.78-1.68-1.76-1.68-2.79c0-1.02,0.68-1.62,1.68-1.62
		c1.44,0,1.59,1.22,2.23,1.22c0.42,0,0.85-0.41,0.85-0.83c0-0.68-1.13-1.84-3.11-1.84c-1.84,0-3.37,1.08-3.37,2.99
		c0,1.18,0.59,1.98,1.25,2.74c-1.13,0.59-2.18,1.79-2.18,3.42C209.64,142.21,211.2,143.94,213.75,143.94L213.75,143.94z
		 M213.97,142.37c-1.62,0-2.52-1.01-2.52-2.25c0-1.13,0.74-1.76,1.39-2.2l3.27,3.45C215.67,141.96,214.99,142.37,213.97,142.37
		L213.97,142.37z M227.05,143.18c0,0.41,0.46,0.59,0.9,0.59c0.46,0,0.9-0.19,0.9-0.59v-4.89h2.62c0.41,0,0.58-0.37,0.58-0.69
		c0-0.39-0.2-0.73-0.58-0.73h-2.62V133h4.94c0.37,0,0.58-0.37,0.58-0.81c0-0.37-0.17-0.78-0.58-0.78h-5.94
		c-0.39,0-0.79,0.2-0.79,0.59V143.18L227.05,143.18z M236.9,143.18c0,0.39,0.44,0.59,0.88,0.59c0.46,0,0.9-0.2,0.9-0.59v-4.72h1.71
		l2.47,4.84c0.17,0.32,0.41,0.52,0.71,0.52c0.51,0,1.08-0.46,1.08-0.91c0-0.07-0.02-0.17-0.07-0.25l-2.37-4.45
		c1.35-0.34,2.39-1.34,2.39-3.35c0-2.62-1.76-3.45-3.89-3.45h-3.21c-0.35,0-0.59,0.27-0.59,0.57V143.18L236.9,143.18z M240.7,133
		c1.27,0,2.1,0.54,2.1,2.01c0,1.47-0.83,2.01-2.1,2.01h-2.03V133H240.7L240.7,133z M247.94,143.77c0.3,0,0.54-0.1,0.63-0.37
		l0.69-2.4h4.18l0.69,2.4c0.08,0.27,0.32,0.37,0.61,0.37c0.51,0,1.13-0.32,1.13-0.75c0-0.05-0.02-0.1-0.03-0.15l-3.35-10.96
		c-0.13-0.41-0.64-0.61-1.15-0.61c-0.51,0-1,0.2-1.13,0.61l-3.37,10.96c-0.02,0.05-0.02,0.1-0.02,0.15
		C246.83,143.47,247.45,143.77,247.94,143.77L247.94,143.77z M249.65,139.56l1.69-5.8l1.69,5.8H249.65L249.65,139.56z
		 M265.47,143.77c0.46,0,0.9-0.2,0.9-0.59v-11.2c0-0.41-0.44-0.57-0.9-0.57c-0.44,0-0.9,0.17-0.9,0.57v7.76l-3.76-7.32
		c-0.41-0.78-0.71-1.01-1.35-1.01c-0.46,0-0.9,0.17-0.9,0.59v11.18c0,0.39,0.46,0.59,0.9,0.59c0.46,0,0.9-0.2,0.9-0.59v-7.76
		l4.04,7.7C264.64,143.55,265.03,143.77,265.47,143.77L265.47,143.77z M276.67,132.57c0.14-0.24,0.2-0.46,0.2-0.66
		c0-0.3-0.19-0.51-0.57-0.51h-6.31c-0.41,0-0.59,0.41-0.59,0.79c0,0.42,0.22,0.8,0.59,0.8h4.58l-5.24,9.62
		c-0.14,0.22-0.19,0.44-0.19,0.63c0,0.31,0.17,0.52,0.56,0.52h6.85c0.37,0,0.59-0.42,0.59-0.79c0-0.39-0.22-0.8-0.59-0.8h-5.13
		L276.67,132.57L276.67,132.57z"/>
	<path fill="#231F20" d="M300.47,117.66c0,1.51,1.21,2.72,2.72,2.72c1.51,0,2.72-1.21,2.72-2.72c0-1.51-1.21-2.72-2.72-2.72
		C301.69,114.93,300.47,116.15,300.47,117.66L300.47,117.66z"/>
</g>
</svg>
